<svg xmlns="http://www.w3.org/2000/svg" viewBox="0 0 512 512">
  <path style="fill: rgb(136, 226, 219); stroke-width: 1.068;" d="M 38.5 377.491 C 38.5 377.491 123.096 370.341 154.046 294.075 C 184.996 217.81 179.837 68.849 330.46 68.849 C 363.486 68.849 399.651 86.892 419.441 102.807 C 518.739 182.654 471.799 346.51 355.22 304.503 C 355.22 304.503 397.519 302.418 397.519 238.066 C 397.519 173.716 327.773 164.183 317.049 217.809 C 309.409 256.011 313.954 371.535 459.418 377.491"></path>
  <path style="fill: rgb(165, 242, 234); stroke-width: 1.068;" d="M 355.221 304.503 C 391.329 304.503 461.998 239.854 419.123 162.813 C 389.143 108.938 307.25 98.044 248.961 165.373 C 200.81 220.992 216.018 319.712 117.492 360.428 C 96.868 368.951 71.261 374.932 39.047 377.445 C 46.31 376.671 124.551 366.768 154.046 294.075 C 184.997 217.809 179.838 68.849 330.461 68.849 C 363.485 68.849 399.645 86.891 419.442 102.812 C 518.739 182.654 471.8 346.51 355.221 304.503 Z"></path>
  <path style="fill: rgb(201, 247, 241); stroke-width: 1.068;" d="M 383.973 310.973 C 467.362 303.822 490.895 171.88 404.999 102.811 C 386.335 87.808 353.147 70.922 321.743 69.027 C 324.591 68.907 327.499 68.848 330.461 68.848 C 363.485 68.848 399.645 86.89 419.442 102.811 C 510.115 175.719 478.856 318.672 383.973 310.973 Z"></path>
  <path style="fill: rgb(115, 198, 190); stroke-width: 1.068;" d="M 459.418 377.491 L 266.563 377.491 C 244.9 367.104 236.333 330.588 247.929 276.199 C 260.814 215.77 285.894 183.201 323.24 176.099 C 345.679 171.833 363.082 180.318 374.193 188.804 C 352.879 175.636 323.673 184.645 317.05 217.81 C 311.507 245.512 312.375 313.866 368.73 351.624 C 385.667 362.971 407.615 371.555 435.908 375.442 C 443.303 376.457 451.132 377.152 459.418 377.491 Z"></path>
  <path style="fill: rgb(119, 198, 158); stroke-width: 1;" d="M 465.449 329.937 C 442.179 329.937 442.179 352.476 418.899 352.476 C 395.629 352.476 395.629 329.937 372.353 329.937 C 349.079 329.937 349.079 352.476 325.806 352.476 C 302.533 352.476 302.533 329.937 279.261 329.937 C 255.989 329.937 255.989 352.476 232.716 352.476 C 209.447 352.476 209.447 329.937 186.177 329.937 C 162.905 329.937 162.905 352.476 139.633 352.476 C 116.36 352.476 116.36 329.937 93.088 329.937 C 69.816 329.937 69.816 352.476 46.543 352.476 C 23.272 352.476 23.272 329.937 0.001 329.937 L 0.001 369.339 L 0.001 384.739 L 0.001 421.179 L 511.999 421.179 L 511.999 407.278 L 511.999 369.339 L 511.999 352.476 C 488.729 352.476 488.729 329.937 465.449 329.937 Z"></path>
  <path style="fill: rgb(137, 229, 185); stroke-width: 1;" d="M 512.002 443.152 C 488.726 443.152 488.726 420.613 465.449 420.613 C 442.173 420.613 442.173 443.152 418.896 443.152 C 395.623 443.152 395.623 420.613 372.35 420.613 C 349.076 420.613 349.076 443.152 325.803 443.152 C 302.53 443.152 302.53 420.613 279.258 420.613 C 255.986 420.613 255.986 443.152 232.713 443.152 C 209.444 443.152 209.444 420.613 186.174 420.613 C 162.902 420.613 162.902 443.152 139.63 443.152 C 116.357 443.152 116.357 420.613 93.085 420.613 C 69.813 420.613 69.813 443.152 46.54 443.152 C 23.269 443.152 23.269 420.613 -0.002 420.613 L -0.002 365.811 C 23.269 365.811 23.269 388.35 46.54 388.35 C 69.811 388.35 69.812 365.811 93.085 365.811 C 116.358 365.811 116.358 388.35 139.63 388.35 C 162.902 388.35 162.902 365.811 186.174 365.811 C 209.444 365.811 209.444 388.35 232.713 388.35 C 255.985 388.35 255.985 365.811 279.258 365.811 C 302.531 365.811 302.531 388.35 325.803 388.35 C 349.077 388.35 349.077 365.811 372.35 365.811 C 395.623 365.811 395.623 388.35 418.896 388.35 C 442.172 388.35 442.172 365.811 465.449 365.811 C 488.725 365.811 488.725 388.35 512.001 388.35 L 512.002 443.152 Z"></path>
</svg>